<svg width="26" height="25" viewBox="0 0 26 25" fill="none" xmlns="http://www.w3.org/2000/svg">
<path d="M17.5698 18.7536C17.7714 18.476 17.9865 18.2588 18.2031 18.039C18.488 17.75 18.776 17.4583 19.0417 17.0234C19.109 16.9144 19.1757 16.8092 19.2417 16.7078C19.4787 16.3401 19.6896 16.014 19.7281 15.6807C19.7781 15.2557 19.8094 12.7036 19.6719 12.3171C19.5339 11.9312 18.7396 11.7145 18.4651 12.5791C18.3297 13.0057 18.287 13.5541 18.2484 14.052C18.2083 14.5625 18.1729 15.0198 18.0453 15.2354C17.7938 15.6614 16.9839 16.7213 16.9839 16.7213L17.6828 15.3948C17.6828 15.3948 17.7891 15.2114 17.7333 14.863C17.6771 14.514 17.2557 14.0265 17.0578 14.414C16.8599 14.801 16.5135 15.1505 16.5135 15.1505L15.2906 16.6239C15.2906 16.6239 14.8922 17.1406 14.8813 17.4239C14.8776 17.5187 14.8188 17.7291 14.751 17.9671C14.6755 18.2359 14.5896 18.5401 14.5625 18.7536V19.2708H17.5693L17.5698 18.7536ZM7.88386 18.7536C7.68126 18.476 7.46563 18.2588 7.24844 18.039C6.96199 17.75 6.67344 17.4583 6.40678 17.0234C6.33942 16.9144 6.27258 16.809 6.20626 16.7073C5.96824 16.3401 5.7573 16.0145 5.71824 15.6812C5.66772 15.2557 5.82344 12.7036 5.96147 12.3171C6.10001 11.9312 6.89688 11.7145 7.1724 12.5791C7.30782 13.0057 7.35105 13.5541 7.39011 14.052C7.42969 14.5625 7.46563 15.0198 7.59324 15.2354C7.84584 15.6614 8.65834 16.7213 8.65834 16.7213L7.9573 15.3948C7.9573 15.3948 7.85053 15.2114 7.90678 14.863C7.96303 14.514 8.38594 14.0265 8.58438 14.414C8.78334 14.801 9.13074 15.1505 9.13074 15.1505L10.3573 16.6239C10.3573 16.6239 10.7573 17.1406 10.7682 17.4239C10.776 17.6255 10.8656 18.351 10.9167 18.7536V19.2708H7.88386V18.7536ZM10.8026 5.72913C9.36355 5.72913 8.31251 7.28433 8.31251 8.96194C8.31251 12.7067 13 15.1041 13 15.1041C13 15.1041 17.6875 12.552 17.6875 8.96194C17.6875 7.28486 16.6365 5.72913 15.1974 5.72913C14.1984 5.72913 13.4578 6.42704 13 7.41663C12.5427 6.42704 11.8016 5.72913 10.8026 5.72913Z" fill="black"/>
<path fill-rule="evenodd" clip-rule="evenodd" d="M3.625 20.3125C3.625 20.7269 3.78962 21.1243 4.08265 21.4174C4.37567 21.7104 4.7731 21.875 5.1875 21.875H20.8125C21.2269 21.875 21.6243 21.7104 21.9174 21.4174C22.2104 21.1243 22.375 20.7269 22.375 20.3125V4.6875C22.375 4.2731 22.2104 3.87567 21.9174 3.58265C21.6243 3.28962 21.2269 3.125 20.8125 3.125H5.1875C4.7731 3.125 4.37567 3.28962 4.08265 3.58265C3.78962 3.87567 3.625 4.2731 3.625 4.6875V20.3125ZM4.66667 4.6875C4.66667 4.54937 4.72154 4.41689 4.81922 4.31922C4.91689 4.22154 5.04937 4.16667 5.1875 4.16667H20.8125C20.9506 4.16667 21.0831 4.22154 21.1808 4.31922C21.2785 4.41689 21.3333 4.54937 21.3333 4.6875V20.3125C21.3333 20.4506 21.2785 20.5831 21.1808 20.6808C21.0831 20.7785 20.9506 20.8333 20.8125 20.8333H17.6875V20.3125C17.6875 20.1744 17.6326 20.0419 17.535 19.9442C17.4373 19.8465 17.3048 19.7917 17.1667 19.7917H15.0833C14.9452 19.7917 14.8127 19.8465 14.715 19.9442C14.6174 20.0419 14.5625 20.1744 14.5625 20.3125V20.8333H10.9167V20.3125C10.9167 20.1744 10.8618 20.0419 10.7641 19.9442C10.6664 19.8465 10.534 19.7917 10.3958 19.7917H8.3125C8.17437 19.7917 8.04189 19.8465 7.94422 19.9442C7.84654 20.0419 7.79167 20.1744 7.79167 20.3125V20.8333H5.1875C5.04937 20.8333 4.91689 20.7785 4.81922 20.6808C4.72154 20.5831 4.66667 20.4506 4.66667 20.3125V4.6875Z" fill="black"/>
</svg>
