<svg width="26" height="25" viewBox="0 0 26 25" fill="none" xmlns="http://www.w3.org/2000/svg">
<path d="M2.68176 11.5484C2.66927 11.4046 2.68682 11.2597 2.73328 11.123C2.77975 10.9863 2.85411 10.8608 2.95167 10.7544C3.04922 10.648 3.16783 10.563 3.29997 10.5049C3.43211 10.4467 3.57489 10.4167 3.71926 10.4166H5.70832C5.98459 10.4166 6.24954 10.5264 6.44489 10.7217C6.64024 10.9171 6.74999 11.182 6.74999 11.4583V21.3541C6.74999 21.6304 6.64024 21.8953 6.44489 22.0907C6.24954 22.286 5.98459 22.3958 5.70832 22.3958H4.5802C4.31948 22.3959 4.06822 22.2981 3.87604 22.122C3.68386 21.9458 3.56473 21.704 3.54218 21.4442L2.68176 11.5484ZM9.87499 11.1328C9.87499 10.6974 10.1458 10.3078 10.5391 10.1224C11.3979 9.71714 12.8609 8.90308 13.5208 7.80256C14.3713 6.38381 14.5318 3.82079 14.5578 3.23381C14.5614 3.15152 14.5594 3.06923 14.5703 2.98798C14.7114 1.97079 16.6745 3.15881 17.4271 4.41506C17.8359 5.09631 17.888 5.99162 17.8453 6.6911C17.7989 7.43902 17.5797 8.16141 17.3646 8.87912L16.9062 10.4088H22.5609C22.7219 10.4088 22.8806 10.4461 23.0247 10.5177C23.1688 10.5894 23.2944 10.6935 23.3915 10.8218C23.4887 10.9501 23.5548 11.0992 23.5846 11.2573C23.6144 11.4155 23.6072 11.5784 23.5635 11.7333L20.7667 21.6375C20.7049 21.8559 20.5735 22.0482 20.3924 22.1851C20.2114 22.322 19.9905 22.3959 19.7635 22.3958H10.9167C10.6404 22.3958 10.3754 22.286 10.1801 22.0907C9.98474 21.8953 9.87499 21.6304 9.87499 21.3541V11.1328Z" stroke="black" stroke-width="2" stroke-linecap="round" stroke-linejoin="round"/>
</svg>
