<svg width="25" height="25" viewBox="0 0 25 25" fill="none" xmlns="http://www.w3.org/2000/svg">
<path d="M13.25 4.44006C14.25 3.72006 15.41 3.36006 16.72 3.36006C17.44 3.36006 18.23 3.55006 19.09 3.95006C19.95 4.34006 20.63 4.80006 21.13 5.33006C22.16 6.61006 22.59 8.10006 22.44 9.80006C22.28 11.5001 21.72 12.8301 20.75 13.7701L13.16 21.3601C12.97 21.5501 12.73 21.6401 12.45 21.6401C12.17 21.6401 11.94 21.5501 11.75 21.3601C11.6576 21.269 11.585 21.1598 11.5368 21.0394C11.4886 20.9189 11.4659 20.7897 11.47 20.6601C11.47 20.3801 11.56 20.1401 11.75 19.9501L16.34 15.3601C16.59 15.1401 16.59 14.9101 16.34 14.6601C16.09 14.4101 15.86 14.4101 15.64 14.6601L11.05 19.2501C10.9575 19.3433 10.8466 19.4163 10.7244 19.4645C10.6022 19.5127 10.4713 19.535 10.34 19.5301C10.06 19.5301 9.83005 19.4401 9.64005 19.2501C9.54759 19.159 9.47498 19.0498 9.4268 18.9294C9.37861 18.8089 9.35588 18.6797 9.36005 18.5501C9.36005 18.2701 9.45005 18.0301 9.64005 17.8401L14.23 13.2501C14.5 13.0001 14.5 12.7501 14.23 12.5001C14 12.2501 13.78 12.2501 13.53 12.5001L8.94005 17.1401C8.84645 17.2318 8.73538 17.3039 8.61343 17.352C8.49147 17.4001 8.3611 17.4232 8.23005 17.4201C7.95005 17.4201 7.71005 17.3301 7.50005 17.1401C7.30005 16.9501 7.20005 16.7201 7.20005 16.4401C7.20005 16.1601 7.31005 15.9101 7.53005 15.6901L12.13 11.0901C12.38 10.8401 12.38 10.6101 12.13 10.3901C11.88 10.1701 11.64 10.1701 11.42 10.3901L6.78005 15.0001C6.56005 15.2001 6.33005 15.3101 6.08005 15.3101C5.80005 15.3101 5.56005 15.2101 5.38005 15.0001C5.19005 14.8001 5.09005 14.5601 5.09005 14.2801C5.09005 14.0001 5.19005 13.7701 5.38005 13.5801C8.44005 10.5001 10.33 8.64006 11.05 7.95006L14.61 11.4701C15 11.8401 15.45 12.0301 16 12.0301C16.7 12.0301 17.25 11.7501 17.66 11.1901C17.94 10.7801 18.04 10.3301 17.96 9.83006C17.88 9.33006 17.67 8.91006 17.33 8.56006L13.25 4.44006ZM15.31 10.7701L11.05 6.50006L3.97005 13.5801C3.13005 12.7301 2.65005 11.4301 2.54005 9.66006C2.43005 7.90006 2.91005 6.37006 3.97005 5.09006C5.16005 3.91006 6.58005 3.31006 8.23005 3.31006C9.89005 3.31006 11.3 3.91006 12.45 5.09006L16.72 9.36006C16.91 9.55006 17 9.78006 17 10.0601C17 10.3401 16.91 10.5801 16.72 10.7701C16.53 10.9501 16.3 11.0501 16 11.0501C15.73 11.0501 15.5 10.9501 15.31 10.7701Z" fill="black"/>
</svg>
