<svg width="30" height="31" viewBox="0 0 30 31" fill="none" xmlns="http://www.w3.org/2000/svg">
<path d="M15 2.375L3.75 6.125V17.375C3.75 23.5889 8.78613 28.625 15 28.625C21.2139 28.625 26.25 23.5889 26.25 17.375V6.125L15 2.375ZM24.1406 17.375C24.1406 22.4229 20.0479 26.5156 15 26.5156C9.95215 26.5156 5.85938 22.4229 5.85938 17.375V7.70703L15 4.48438L24.1406 7.70703V17.375Z" fill="black"/>
<path d="M11.086 14.4189C10.9882 14.3207 10.872 14.2428 10.7441 14.1897C10.6161 14.1365 10.4789 14.1091 10.3404 14.1091C10.2018 14.1091 10.0646 14.1365 9.93664 14.1897C9.80869 14.2428 9.6925 14.3207 9.59475 14.4189C9.49655 14.5167 9.41862 14.6329 9.36545 14.7608C9.31228 14.8888 9.28491 15.026 9.28491 15.1646C9.28491 15.3031 9.31228 15.4403 9.36545 15.5683C9.41862 15.6962 9.49655 15.8124 9.59475 15.9102L13.3858 19.7012L13.4473 19.7627C13.5398 19.8553 13.6496 19.9288 13.7705 19.979C13.8914 20.0291 14.021 20.0549 14.1519 20.0549C14.2828 20.0549 14.4124 20.0291 14.5333 19.979C14.6542 19.9288 14.764 19.8553 14.8565 19.7627L21.4043 13.2148C21.497 13.1224 21.5705 13.0126 21.6206 12.8917C21.6707 12.7707 21.6966 12.6411 21.6966 12.5103C21.6966 12.3794 21.6707 12.2498 21.6206 12.1289C21.5705 12.008 21.497 11.8981 21.4043 11.8057L21.3223 11.7236C21.2298 11.631 21.12 11.5575 20.9991 11.5074C20.8782 11.4572 20.7486 11.4314 20.6177 11.4314C20.4868 11.4314 20.3572 11.4572 20.2363 11.5074C20.1154 11.5575 20.0056 11.631 19.9131 11.7236L14.1504 17.4834L11.086 14.4189Z" fill="black"/>
</svg>
