<svg width="26" height="25" viewBox="0 0 26 25" fill="none" xmlns="http://www.w3.org/2000/svg">
<path d="M17.3516 21.6797C15.9922 22.3261 14.5053 22.6598 13 22.6562C7.40002 22.6562 2.84377 18.1 2.84377 12.5C2.84377 10.0977 3.66955 7.82891 5.18752 6.00937V7.8125H6.75002V3.125H2.06252V4.6875H4.28283C2.34579 6.82791 1.27567 9.61322 1.28127 12.5C1.28127 18.9617 6.5383 24.2188 13 24.2188C14.7377 24.2224 16.4542 23.8369 18.0235 23.0906L17.3516 21.6797Z" fill="black"/>
<path d="M16.9062 7.03125C14.4375 7.03125 12.4133 8.95078 12.2359 11.375C11.3771 10.5913 10.2564 10.1566 9.09375 10.1562H5.96875V13.2812C5.96875 15.8664 8.07187 17.9688 10.6562 17.9688H12.2188V21.0938H13.7812V14.8438H15.3438C17.9281 14.8438 20.0312 12.7414 20.0312 10.1562V7.03125H16.9062ZM10.6562 16.4062C8.93281 16.4062 7.53125 15.0047 7.53125 13.2812V11.7188H9.09375C10.8172 11.7188 12.2188 13.1203 12.2188 14.8438V15.3016L10.4273 13.5102L9.32266 14.6148L11.1141 16.4062H10.6562ZM18.4688 10.1562C18.4688 11.8797 17.0672 13.2812 15.3438 13.2812H14.8859L16.6773 11.4898L15.5727 10.3852L13.7812 12.1766V11.7188C13.7812 9.99531 15.1828 8.59375 16.9062 8.59375H18.4688V10.1562Z" fill="black"/>
<path d="M24.7188 12.5C24.7188 6.03831 19.4617 0.781275 13 0.781275C11.2623 0.777657 9.54585 1.16313 7.97656 1.9094L8.64844 3.32034C10.0078 2.67393 11.4948 2.34024 13 2.34378C18.6 2.34378 23.1562 6.90003 23.1562 12.5C23.1562 14.9024 22.3305 17.1711 20.8125 18.9907V17.1875H19.25V21.875H23.9375V20.3125H21.7172C23.6542 18.1721 24.7244 15.3868 24.7188 12.5Z" fill="black"/>
</svg>
