<svg width="64" height="64" viewBox="0 0 64 64" fill="none" xmlns="http://www.w3.org/2000/svg">
<rect width="64" height="64" rx="13" fill="#006522"/>
<path d="M35.05 25C36.0267 25.1906 36.9244 25.6683 37.6281 26.3719C38.3317 27.0756 38.8094 27.9733 39 28.95M35.05 21C37.0793 21.2254 38.9716 22.1342 40.4162 23.577C41.8609 25.0198 42.772 26.911 43 28.94M42 36.92V39.92C42.0011 40.1985 41.9441 40.4742 41.8325 40.7293C41.7209 40.9845 41.5573 41.2136 41.3521 41.4019C41.1468 41.5901 40.9046 41.7335 40.6407 41.8227C40.3769 41.9119 40.0974 41.9451 39.82 41.92C36.7428 41.5856 33.787 40.5341 31.19 38.85C28.7738 37.3147 26.7253 35.2662 25.19 32.85C23.5 30.2412 22.4482 27.271 22.12 24.18C22.095 23.9035 22.1279 23.6248 22.2165 23.3616C22.3051 23.0985 22.4476 22.8567 22.6348 22.6516C22.822 22.4466 23.0498 22.2827 23.3038 22.1705C23.5578 22.0583 23.8323 22.0003 24.11 22H27.11C27.5953 21.9952 28.0658 22.1671 28.4338 22.4835C28.8017 22.8 29.0421 23.2394 29.11 23.72C29.2366 24.6801 29.4714 25.6227 29.81 26.53C29.9445 26.8879 29.9737 27.2769 29.8939 27.6509C29.8141 28.0248 29.6289 28.3681 29.36 28.64L28.09 29.91C29.5135 32.4135 31.5864 34.4864 34.09 35.91L35.36 34.64C35.6319 34.3711 35.9751 34.1858 36.3491 34.1061C36.7231 34.0263 37.1121 34.0555 37.47 34.19C38.3773 34.5286 39.3199 34.7634 40.28 34.89C40.7658 34.9585 41.2094 35.2032 41.5265 35.5775C41.8437 35.9518 42.0122 36.4296 42 36.92Z" stroke="#F2F2F2" stroke-width="2" stroke-linecap="round" stroke-linejoin="round"/>
</svg>
