<svg width="158" height="158" viewBox="0 0 158 158" fill="none" xmlns="http://www.w3.org/2000/svg">
<circle cx="79" cy="79" r="79" fill="#FFC52E"/>
<path d="M67.2089 61.0909V96H59.8282V68.0966H59.6237L51.6294 73.108V66.5625L60.2714 61.0909H67.2089ZM89.7612 96L95.4885 61.0909H100.943L95.2158 96H89.7612ZM74.1306 87.3409L75.034 81.8864H102.307L101.403 87.3409H74.1306ZM77.4885 96L83.2158 61.0909H88.6703L82.9431 96H77.4885ZM76.1249 75.2045L77.0453 69.75H104.318L103.398 75.2045H76.1249Z" fill="#353535"/>
<path d="M25.1934 56.7106L15.663 50.034L17.9606 46.2177C18.3943 45.4972 18.8633 44.9746 19.3677 44.6497C19.8709 44.3194 20.38 44.1661 20.8949 44.1901C21.4117 44.2107 21.9059 44.3862 22.3775 44.7166C22.7653 44.9882 23.0503 45.2987 23.2327 45.6479C23.4119 45.9949 23.5077 46.3596 23.5201 46.742C23.5324 47.1244 23.4782 47.5039 23.3573 47.8806L23.4503 47.9458C23.6819 47.6051 23.99 47.3388 24.3746 47.1469C24.7581 46.9495 25.1829 46.8665 25.6492 46.8979C26.1155 46.9293 26.5907 47.1145 27.0746 47.4535C27.5679 47.7991 27.9363 48.2348 28.1799 48.7607C28.4203 49.2845 28.5024 49.8771 28.426 50.5388C28.3497 51.2005 28.0819 51.9126 27.6228 52.6752L25.1934 56.7106ZM24.838 53.894L26.0073 51.9518C26.402 51.2963 26.5668 50.7404 26.5018 50.2842C26.4357 49.8227 26.2133 49.4593 25.8349 49.1941C25.5525 48.9964 25.2542 48.8912 24.9398 48.8785C24.6223 48.8637 24.3173 48.9454 24.0249 49.1234C23.7293 49.2993 23.4692 49.5739 23.2445 49.9471L22.0459 51.938L24.838 53.894ZM20.8034 51.0675L21.879 49.2811C22.0665 48.9696 22.1812 48.6508 22.2231 48.3249C22.2618 47.9967 22.2234 47.6907 22.1077 47.4066C21.9908 47.1171 21.7928 46.8746 21.5136 46.679C21.1444 46.4204 20.7583 46.3437 20.3553 46.4489C19.9543 46.5509 19.5936 46.868 19.2732 47.4002L18.1742 49.2256L20.8034 51.0675Z" fill="#353535"/>
<path d="M132.815 102.134L142.335 108.826L140.043 112.645C139.61 113.367 139.142 113.89 138.639 114.215C138.137 114.545 137.629 114.698 137.114 114.674C136.598 114.653 136.105 114.477 135.634 114.145C135.246 113.873 134.962 113.562 134.779 113.212C134.6 112.865 134.504 112.499 134.492 112.117C134.479 111.734 134.533 111.354 134.654 110.977L134.561 110.911C134.33 111.252 134.022 111.519 133.638 111.711C133.256 111.908 132.831 111.991 132.366 111.959C131.9 111.927 131.426 111.741 130.942 111.402C130.45 111.055 130.081 110.619 129.838 110.092C129.598 109.567 129.515 108.974 129.591 108.311C129.667 107.649 129.934 106.936 130.392 106.173L132.815 102.134ZM133.172 104.954L132.005 106.898C131.612 107.554 131.447 108.111 131.513 108.568C131.579 109.03 131.801 109.394 132.179 109.66C132.461 109.858 132.759 109.963 133.073 109.976C133.39 109.991 133.694 109.91 133.986 109.732C134.281 109.556 134.541 109.281 134.765 108.907L135.961 106.915L133.172 104.954ZM137.202 107.787L136.129 109.575C135.942 109.887 135.827 110.206 135.786 110.533C135.747 110.861 135.786 111.168 135.902 111.452C136.018 111.742 136.216 111.985 136.495 112.181C136.864 112.44 137.249 112.517 137.652 112.412C138.052 112.31 138.412 111.993 138.732 111.46L139.828 109.633L137.202 107.787Z" fill="#353535"/>
<path d="M32.576 45.2398C32.0313 45.9246 31.4275 46.3925 30.7645 46.6435C30.101 46.889 29.4172 46.9175 28.7129 46.7289C28.0059 46.5377 27.3174 46.1321 26.6474 45.512C25.9886 44.9022 25.5165 44.2336 25.2311 43.5063C24.9453 42.7734 24.8555 42.0367 24.9619 41.2962C25.0654 40.5531 25.3766 39.8554 25.8953 39.2033C26.2302 38.7823 26.6101 38.4442 27.035 38.1891C27.4596 37.9283 27.9183 37.7764 28.4111 37.7333C28.9062 37.6872 29.4242 37.7703 29.9649 37.9825C30.5028 38.1921 31.0525 38.5568 31.6141 39.0765L32.0769 39.5049L27.624 45.1034L26.6065 44.1617L29.8322 40.1063C29.5407 39.8416 29.2305 39.6703 28.9016 39.5924C28.5699 39.5118 28.2456 39.5282 27.9286 39.6415C27.614 39.7518 27.3341 39.9611 27.0889 40.2694C26.8272 40.5984 26.6724 40.9569 26.6244 41.3449C26.5737 41.7303 26.6138 42.1046 26.7449 42.4677C26.8755 42.8254 27.0828 43.1382 27.3667 43.4062L28.2549 44.2282C28.6274 44.573 29.0049 44.7963 29.3873 44.898C29.7669 44.9972 30.1314 44.9819 30.4807 44.8523C30.8272 44.72 31.1395 44.479 31.4178 44.1292C31.604 43.895 31.742 43.6547 31.8318 43.4084C31.9188 43.1595 31.9565 42.9088 31.945 42.6562C31.9335 42.4037 31.8657 42.1582 31.7416 41.9198L33.0955 40.5635C33.3926 41.0031 33.574 41.485 33.6398 42.0091C33.7051 42.5277 33.6504 43.0637 33.4755 43.6173C33.2979 44.1683 32.998 44.7091 32.576 45.2398Z" fill="#353535"/>
<path d="M125.442 113.641C125.985 112.956 126.588 112.487 127.25 112.236C127.912 111.99 128.595 111.962 129.298 112.151C130.003 112.343 130.691 112.749 131.36 113.37C132.017 113.981 132.489 114.651 132.774 115.38C133.059 116.114 133.149 116.852 133.043 117.593C132.94 118.337 132.63 119.036 132.112 119.689C131.778 120.111 131.399 120.449 130.975 120.704C130.551 120.965 130.093 121.118 129.601 121.161C129.107 121.207 128.59 121.123 128.05 120.911C127.513 120.7 126.964 120.335 126.404 119.814L125.941 119.385L130.385 113.779L131.401 114.723L128.182 118.784C128.473 119.049 128.783 119.22 129.111 119.298C129.442 119.379 129.766 119.363 130.082 119.25C130.396 119.139 130.676 118.93 130.92 118.621C131.181 118.291 131.336 117.932 131.384 117.544C131.434 117.158 131.394 116.783 131.263 116.419C131.133 116.061 130.926 115.748 130.642 115.479L129.755 114.656C129.383 114.31 129.007 114.087 128.625 113.985C128.246 113.885 127.882 113.9 127.534 114.03C127.188 114.162 126.876 114.404 126.598 114.754C126.412 114.988 126.275 115.229 126.185 115.476C126.098 115.725 126.061 115.976 126.072 116.229C126.084 116.482 126.152 116.728 126.276 116.967L124.924 118.325C124.628 117.884 124.447 117.402 124.381 116.877C124.315 116.357 124.37 115.82 124.544 115.266C124.722 114.714 125.021 114.173 125.442 113.641Z" fill="#353535"/>
<path d="M36.7333 30.7521L35.4458 32.1508C35.292 32.0344 35.1151 31.9533 34.9152 31.9075C34.718 31.8592 34.5061 31.8666 34.2793 31.9296C34.0526 31.9926 33.8195 32.129 33.5801 32.3386C33.2581 32.6206 33.0432 32.9318 32.9354 33.2723C32.8305 33.6103 32.8683 33.896 33.0488 34.1296C33.1985 34.3349 33.3925 34.4387 33.6306 34.441C33.8716 34.4408 34.1896 34.3356 34.5845 34.1253L35.8957 33.3988C36.624 32.997 37.2553 32.8182 37.7897 32.8623C38.3269 32.904 38.7849 33.1733 39.1636 33.6701C39.491 34.1115 39.6615 34.6049 39.6749 35.1505C39.689 35.6905 39.5557 36.2391 39.2752 36.7961C38.9947 37.3531 38.5809 37.8711 38.0338 38.3503C37.2302 39.0541 36.449 39.442 35.6901 39.5141C34.9289 39.5832 34.2599 39.3381 33.6829 38.7789L35.0756 37.3031C35.3809 37.558 35.705 37.6683 36.048 37.634C36.391 37.5997 36.7406 37.4266 37.0968 37.1147C37.4644 36.7928 37.6989 36.4543 37.8005 36.0992C37.9049 35.7416 37.8682 35.4448 37.6905 35.2088C37.5402 35.009 37.3434 34.9077 37.1001 34.9048C36.8597 34.8995 36.5623 34.9943 36.2078 35.1892L34.9 35.9203C34.1655 36.3326 33.5231 36.5061 32.9727 36.4407C32.4201 36.3724 31.9539 36.0827 31.5741 35.5718C31.2478 35.1445 31.0773 34.6762 31.0627 34.1668C31.0486 33.6518 31.1762 33.1334 31.4453 32.6115C31.7149 32.0841 32.1119 31.5908 32.6362 31.1316C33.4056 30.4578 34.1421 30.1015 34.8457 30.0627C35.5522 30.0214 36.1814 30.2512 36.7333 30.7521Z" fill="#353535"/>
<path d="M121.282 128.174L122.568 126.773C122.721 126.89 122.898 126.971 123.097 127.016C123.294 127.065 123.506 127.057 123.732 126.994C123.958 126.931 124.191 126.794 124.43 126.584C124.752 126.302 124.966 125.99 125.074 125.649C125.179 125.31 125.141 125.024 124.961 124.79C124.812 124.585 124.618 124.481 124.38 124.479C124.14 124.479 123.822 124.584 123.428 124.795L122.119 125.523C121.392 125.926 120.762 126.105 120.228 126.061C119.692 126.02 119.235 125.75 118.857 125.253C118.53 124.811 118.36 124.317 118.347 123.77C118.333 123.229 118.466 122.68 118.746 122.122C119.027 121.564 119.44 121.045 119.986 120.565C120.789 119.86 121.569 119.471 122.326 119.399C123.086 119.329 123.754 119.574 124.33 120.134L122.939 121.613C122.634 121.358 122.311 121.247 121.968 121.282C121.626 121.316 121.277 121.49 120.921 121.802C120.554 122.125 120.32 122.464 120.218 122.82C120.114 123.178 120.151 123.475 120.328 123.711C120.478 123.911 120.674 124.013 120.917 124.015C121.157 124.021 121.454 123.926 121.808 123.73L123.114 122.998C123.847 122.584 124.488 122.41 125.038 122.476C125.589 122.544 126.055 122.834 126.434 123.345C126.759 123.773 126.929 124.242 126.944 124.752C126.958 125.268 126.83 125.787 126.561 126.31C126.292 126.838 125.895 127.333 125.372 127.793C124.604 128.468 123.868 128.825 123.166 128.864C122.461 128.906 121.833 128.676 121.282 128.174Z" fill="#353535"/>
<path d="M42.1077 24.2439L42.9653 25.5839L38.9414 28.5805L38.0839 27.2405L42.1077 24.2439ZM37.9502 24.7396L39.5998 23.5111L44.0163 30.412C44.1654 30.6449 44.3131 30.7987 44.4596 30.8734C44.6071 30.9426 44.7513 30.9576 44.8923 30.9186C45.0333 30.8796 45.1721 30.8091 45.3088 30.7073C45.4121 30.6304 45.5012 30.5523 45.5761 30.473C45.6539 30.3914 45.7116 30.3273 45.749 30.2806L46.8937 31.4279C46.826 31.5254 46.7224 31.6544 46.5829 31.8149C46.4464 31.9731 46.2632 32.1425 46.0333 32.3231C45.6283 32.6435 45.2143 32.8553 44.7913 32.9583C44.3662 33.0581 43.9585 33.0273 43.568 32.8658C43.1806 32.7021 42.8414 32.3894 42.5504 31.9277L37.9502 24.7396Z" fill="#353535"/>
<path d="M115.903 134.704L115.047 133.363L119.066 130.36L119.922 131.701L115.903 134.704ZM120.054 134.206L118.406 135.437L114.001 128.529C113.852 128.296 113.704 128.142 113.558 128.067C113.411 127.998 113.267 127.983 113.126 128.022C112.986 128.061 112.847 128.132 112.71 128.234C112.607 128.311 112.518 128.389 112.443 128.469C112.366 128.551 112.308 128.615 112.271 128.662L111.128 127.513C111.196 127.416 111.299 127.287 111.439 127.126C111.575 126.967 111.758 126.798 111.988 126.617C112.392 126.295 112.806 126.083 113.228 125.98C113.653 125.879 114.06 125.91 114.449 126.072C114.836 126.235 115.175 126.548 115.465 127.01L120.054 134.206Z" fill="#353535"/>
<path d="M51.926 27.7767L49.1305 19.5093L50.9599 18.7895L51.4349 20.1943L51.5301 20.1569C51.5391 19.6166 51.6944 19.1368 51.9958 18.7173C52.2961 18.2942 52.7177 17.9759 53.2605 17.7623C53.8104 17.546 54.32 17.5 54.7893 17.6243C55.261 17.7436 55.6533 18.006 55.9661 18.4115L56.0507 18.3782C56.0752 17.8481 56.2545 17.3629 56.5888 16.9223C56.9255 16.4768 57.3881 16.1383 57.9767 15.9067C58.724 15.6127 59.4151 15.6131 60.05 15.9081C60.6849 16.2031 61.1583 16.8117 61.4701 17.7339L63.3465 23.2832L61.4272 24.0384L59.6527 18.7905C59.4792 18.2774 59.2185 17.9551 58.8705 17.8237C58.5214 17.6886 58.1529 17.6974 57.7652 17.85C57.3034 18.0317 56.9919 18.3209 56.8305 18.7178C56.6715 19.1097 56.6708 19.5389 56.8285 20.0054L58.5721 25.1618L56.6951 25.9003L54.8933 20.5716C54.7489 20.1446 54.5068 19.8537 54.1668 19.6988C53.8304 19.5425 53.4596 19.5441 53.0542 19.7036C52.7793 19.8117 52.5533 19.982 52.3762 20.2143C52.1979 20.443 52.0855 20.7128 52.0389 21.0239C51.9911 21.3314 52.0248 21.6556 52.1401 21.9964L53.84 27.0237L51.926 27.7767Z" fill="#353535"/>
<path d="M106.086 131.193L108.873 139.464L107.044 140.186L106.571 138.78L106.476 138.818C106.466 139.358 106.311 139.839 106.009 140.259C105.709 140.682 105.287 141.001 104.745 141.216C104.195 141.433 103.686 141.479 103.217 141.355C102.746 141.236 102.354 140.974 102.042 140.568L101.957 140.602C101.932 141.132 101.753 141.618 101.418 142.059C101.082 142.505 100.619 142.844 100.031 143.077C99.2839 143.372 98.5933 143.372 97.9591 143.077C97.3249 142.783 96.8524 142.174 96.5416 141.251L94.671 135.7L96.5893 134.943L98.3583 140.192C98.5313 140.706 98.7916 141.028 99.1392 141.159C99.488 141.294 99.8562 141.285 100.244 141.132C100.705 140.95 101.017 140.66 101.178 140.263C101.338 139.87 101.339 139.441 101.181 138.974L99.4432 133.816L101.319 133.075L103.115 138.406C103.259 138.833 103.501 139.124 103.841 139.279C104.177 139.435 104.547 139.433 104.953 139.273C105.227 139.164 105.453 138.994 105.63 138.761C105.809 138.532 105.921 138.262 105.968 137.951C106.016 137.643 105.983 137.319 105.868 136.978L104.173 131.949L106.086 131.193Z" fill="#353535"/>
<path d="M69.4602 22.2404C68.6244 22.4075 67.8684 22.3675 67.192 22.1204C66.5156 21.8734 65.9514 21.4514 65.4992 20.8544C65.0507 20.2568 64.7502 19.5137 64.5975 18.6252C64.4449 17.7367 64.4783 16.9249 64.6978 16.1898C64.921 15.454 65.3073 14.8401 65.8566 14.3479C66.406 13.8558 67.0986 13.5262 67.9343 13.3592C68.77 13.1921 69.5261 13.2321 70.2025 13.4791C70.8788 13.7262 71.4416 14.1504 71.8907 14.7518C72.3435 15.3525 72.6462 16.0971 72.7989 16.9856C72.9515 17.8741 72.9159 18.6843 72.6921 19.4164C72.4719 20.1478 72.0872 20.7595 71.5378 21.2516C70.9884 21.7437 70.2959 22.0733 69.4602 22.2404ZM69.1923 20.6142C69.6454 20.5236 70.0028 20.3228 70.2644 20.0118C70.5254 19.6971 70.6936 19.3121 70.7691 18.8568C70.8482 18.4007 70.8429 17.9114 70.7531 17.3888C70.6627 16.8624 70.5048 16.4016 70.2794 16.0065C70.057 15.6069 69.7718 15.3106 69.4236 15.1176C69.0754 14.9247 68.6747 14.8735 68.2216 14.9641C67.7573 15.0569 67.3928 15.261 67.1281 15.5765C66.8671 15.8913 66.6974 16.2785 66.6189 16.7383C66.5434 17.1936 66.5509 17.6844 66.6413 18.2108C66.7311 18.7334 66.8869 19.1927 67.1085 19.5886C67.334 19.9837 67.6208 20.2778 67.9689 20.4707C68.3202 20.6592 68.728 20.7071 69.1923 20.6142Z" fill="#353535"/>
<path d="M88.5484 136.754C89.384 136.586 90.1399 136.626 90.816 136.872C91.492 137.119 92.0559 137.541 92.5077 138.137C92.9557 138.735 93.2558 139.478 93.408 140.367C93.5601 141.255 93.5263 142.067 93.3064 142.803C93.0829 143.539 92.6964 144.153 92.1469 144.646C91.5974 145.138 90.9048 145.468 90.0692 145.636C89.2336 145.803 88.4777 145.764 87.8016 145.517C87.1255 145.271 86.5632 144.847 86.1145 144.245C85.6621 143.645 85.3598 142.9 85.2077 142.012C85.0556 141.123 85.0916 140.313 85.3158 139.58C85.5362 138.849 85.9212 138.237 86.4707 137.744C87.0202 137.251 87.7128 136.921 88.5484 136.754ZM88.8153 138.38C88.3622 138.471 88.0048 138.672 87.7431 138.983C87.4821 139.298 87.3137 139.683 87.238 140.139C87.1586 140.595 87.1637 141.084 87.2532 141.607C87.3433 142.134 87.5009 142.594 87.7261 142.989C87.9481 143.389 88.2332 143.685 88.5812 143.878C88.9292 144.071 89.3297 144.122 89.7828 144.031C90.2471 143.938 90.6116 143.733 90.8764 143.417C91.1374 143.102 91.3073 142.715 91.3861 142.255C91.4618 141.8 91.4546 141.309 91.3644 140.782C91.2749 140.26 91.1195 139.8 90.898 139.405C90.6729 139.01 90.3863 138.716 90.0383 138.523C89.6872 138.334 89.2796 138.287 88.8153 138.38Z" fill="#353535"/>
<path d="M77.9726 21.4702C77.2873 21.4913 76.6693 21.3341 76.1186 20.9986C75.5679 20.6631 75.1265 20.1651 74.7945 19.5046C74.4626 18.844 74.2839 18.0348 74.2586 17.0768C74.2329 16.1074 74.3703 15.2846 74.6707 14.6084C74.9748 13.9283 75.3949 13.4094 75.9311 13.0518C76.4672 12.6905 77.0703 12.4995 77.7404 12.4788C78.2515 12.4631 78.6741 12.5373 79.0081 12.7013C79.342 12.8616 79.6087 13.0599 79.8082 13.2963C80.0076 13.5289 80.1631 13.7496 80.2747 13.9584L80.3599 13.9557L80.2448 9.60499L82.3063 9.54153L82.6141 21.1738L80.5923 21.2361L80.5559 19.8615L80.431 19.8654C80.3306 20.0807 80.1832 20.3107 79.9889 20.5555C79.7944 20.7964 79.5347 21.0052 79.2097 21.182C78.8848 21.3587 78.4724 21.4548 77.9726 21.4702ZM78.5016 19.7656C78.937 19.7522 79.3049 19.6234 79.6054 19.3792C79.9057 19.1312 80.1298 18.7927 80.2776 18.3637C80.4254 17.9347 80.4918 17.4381 80.4769 16.874C80.462 16.3098 80.3695 15.8218 80.1995 15.4102C80.0332 14.9985 79.7937 14.6818 79.4809 14.4603C79.1719 14.2386 78.7959 14.1346 78.353 14.1483C77.8948 14.1624 77.5156 14.2934 77.2152 14.5414C76.9149 14.7894 76.6926 15.126 76.5485 15.551C76.4044 15.9761 76.3395 16.4594 76.3539 17.0009C76.3683 17.5461 76.4588 18.0303 76.6253 18.4534C76.7956 18.8726 77.0373 19.2006 77.3505 19.4373C77.6673 19.67 78.051 19.7795 78.5016 19.7656Z" fill="#353535"/>
<path d="M80.0288 137.529C80.714 137.508 81.332 137.665 81.8827 138C82.4334 138.336 82.8747 138.833 83.2066 139.494C83.5385 140.155 83.7171 140.964 83.7424 141.922C83.7679 142.891 83.6305 143.714 83.33 144.39C83.0259 145.07 82.6057 145.589 82.0695 145.947C81.5334 146.308 80.9303 146.499 80.2601 146.52C79.749 146.536 79.3265 146.462 78.9925 146.298C78.6586 146.138 78.3919 145.939 78.1924 145.703C77.9931 145.47 77.8376 145.25 77.726 145.041L77.6408 145.043L77.7555 149.394L75.694 149.458L75.3873 137.826L77.4091 137.763L77.4453 139.138L77.5702 139.134C77.6707 138.918 77.818 138.688 78.0124 138.444C78.2069 138.203 78.4666 137.994 78.7916 137.817C79.1166 137.64 79.529 137.544 80.0288 137.529ZM79.4996 139.233C79.0642 139.247 78.6963 139.376 78.3958 139.62C78.0954 139.868 77.8713 140.206 77.7235 140.635C77.5757 141.064 77.5092 141.561 77.5241 142.125C77.5389 142.689 77.6314 143.177 77.8014 143.589C77.9676 144.001 78.2071 144.317 78.5198 144.539C78.8288 144.76 79.2048 144.864 79.6478 144.851C80.1059 144.837 80.4851 144.705 80.7855 144.457C81.0859 144.209 81.3081 143.873 81.4523 143.448C81.5964 143.023 81.6614 142.539 81.6471 141.998C81.6327 141.453 81.5423 140.968 81.3758 140.545C81.2056 140.126 80.9639 139.798 80.6507 139.562C80.3339 139.329 79.9502 139.219 79.4996 139.233Z" fill="#353535"/>
<path d="M87.8313 21.6669C86.9622 21.5658 86.2297 21.2976 85.6337 20.8622C85.0419 20.4235 84.6101 19.8509 84.3381 19.1444C84.0665 18.4341 83.9761 17.6248 84.0669 16.7165C84.1562 15.8232 84.4039 15.0589 84.8099 14.4236C85.2201 13.785 85.7507 13.3129 86.4017 13.0073C87.053 12.698 87.7926 12.5914 88.6203 12.6877C89.1546 12.7499 89.6501 12.8952 90.1069 13.1237C90.5677 13.3489 90.9628 13.6617 91.292 14.0622C91.6249 14.4632 91.869 14.9529 92.0243 15.5315C92.1801 16.1063 92.2199 16.7744 92.1438 17.5357L92.081 18.1633L84.9755 17.3369L85.1134 15.9574L90.2605 16.556C90.2959 16.1636 90.2461 15.8051 90.1111 15.4806C89.9764 15.1522 89.7693 14.8822 89.4898 14.6705C89.214 14.4592 88.8805 14.3308 88.4892 14.2853C88.0716 14.2367 87.6945 14.2958 87.3581 14.4626C87.0221 14.6256 86.7493 14.8608 86.5397 15.1681C86.3342 15.4722 86.2102 15.8181 86.1676 16.2058L86.0473 17.4101C85.9968 17.9151 86.0457 18.3593 86.1939 18.7426C86.3424 19.1221 86.5727 19.4272 86.8846 19.6579C87.1968 19.8849 87.5749 20.0242 88.0189 20.0758C88.3162 20.1104 88.5893 20.1002 88.8384 20.0453C89.0879 19.9866 89.3093 19.8846 89.5027 19.7394C89.6961 19.5941 89.8502 19.4042 89.965 19.1697L91.8512 19.6064C91.6803 20.0975 91.4067 20.5118 91.0304 20.8493C90.6582 21.1835 90.2003 21.4238 89.6566 21.5703C89.1132 21.713 88.5048 21.7452 87.8313 21.6669Z" fill="#353535"/>
<path d="M70.1635 137.331C71.0326 137.432 71.7652 137.701 72.3612 138.136C72.9531 138.575 73.3852 139.148 73.6573 139.855C73.9291 140.565 74.0198 141.374 73.9293 142.283C73.8403 143.176 73.5929 143.94 73.1871 144.576C72.7771 145.214 72.2468 145.686 71.5959 145.991C70.9448 146.3 70.2053 146.407 69.3776 146.31C68.8433 146.248 68.3478 146.102 67.891 145.874C67.4301 145.648 67.035 145.335 66.7057 144.934C66.3727 144.533 66.1284 144.044 65.9729 143.465C65.817 142.89 65.777 142.222 65.8529 141.46L65.9154 140.833L73.0206 141.662L72.8832 143.042L67.7363 142.441C67.701 142.833 67.7509 143.192 67.886 143.517C68.0208 143.845 68.228 144.115 68.5075 144.327C68.7834 144.538 69.1169 144.667 69.5082 144.712C69.9258 144.761 70.3028 144.702 70.6391 144.536C70.975 144.373 71.2477 144.138 71.4572 143.83C71.6626 143.526 71.7865 143.181 71.8289 142.793L71.9489 141.588C71.9992 141.083 71.9502 140.639 71.8019 140.256C71.6532 139.876 71.4229 139.571 71.1109 139.34C70.7986 139.113 70.4205 138.974 69.9765 138.922C69.6793 138.887 69.4062 138.897 69.1571 138.952C68.9077 139.011 68.6863 139.112 68.4929 139.258C68.2996 139.403 68.1456 139.593 68.0309 139.827L66.1448 139.39C66.3155 138.899 66.5889 138.484 66.965 138.147C67.3371 137.813 67.7949 137.573 68.3385 137.427C68.8817 137.284 69.4901 137.252 70.1635 137.331Z" fill="#353535"/>
<path d="M93.3099 22.5364L95.2895 14.0366L97.2144 14.5583L96.8845 15.9749L96.9722 15.9987C97.2401 15.5497 97.5914 15.2429 98.0261 15.0783C98.4654 14.9111 98.9264 14.8928 99.409 15.0236C99.5186 15.0533 99.6398 15.0921 99.7725 15.1398C99.9097 15.1848 100.022 15.2289 100.109 15.2722L99.6798 17.1149C99.6026 17.0626 99.4752 17.0006 99.2975 16.9289C99.1244 16.8545 98.9537 16.7946 98.7856 16.749C98.4236 16.6509 98.0798 16.642 97.754 16.7224C97.4327 16.8001 97.1576 16.9549 96.9287 17.187C96.6997 17.4191 96.5431 17.7159 96.4589 18.0775L95.2952 23.0744L93.3099 22.5364Z" fill="#353535"/>
<path d="M64.6785 136.454L62.7054 144.956L60.7809 144.432L61.1098 143.015L61.0221 142.992C60.7546 143.441 60.4037 143.747 59.9692 143.911C59.5302 144.078 59.0695 144.096 58.587 143.965C58.4773 143.935 58.3562 143.896 58.2235 143.849C58.0863 143.803 57.9742 143.759 57.8871 143.716L58.3149 141.873C58.3921 141.925 58.5195 141.987 58.6971 142.059C58.8702 142.134 59.0408 142.194 59.209 142.24C59.5708 142.338 59.9146 142.347 60.2401 142.267C60.5612 142.19 60.8361 142.035 61.0648 141.803C61.2935 141.571 61.4498 141.274 61.5338 140.912L62.6938 135.915L64.6785 136.454Z" fill="#353535"/>
<path d="M102.771 20.1966L101.128 25.0392L99.2152 24.2841L102.019 16.0193L103.847 16.7411L103.371 18.1454L103.466 18.183C103.81 17.794 104.232 17.5438 104.733 17.4325C105.238 17.3226 105.793 17.3872 106.399 17.6264C106.96 17.8475 107.406 18.1621 107.739 18.5701C108.076 18.9796 108.28 19.4608 108.352 20.014C108.428 20.5685 108.352 21.1751 108.124 21.8337L106.339 27.0961L104.426 26.3409L106.109 21.3799C106.296 20.8275 106.302 20.3396 106.126 19.9163C105.954 19.4943 105.621 19.186 105.127 18.9913C104.793 18.8592 104.469 18.817 104.158 18.8647C103.851 18.9103 103.576 19.0438 103.333 19.2652C103.093 19.4879 102.906 19.7984 102.771 20.1966Z" fill="#353535"/>
<path d="M55.2185 138.783L56.856 133.939L58.7683 134.696L55.9735 142.964L54.1458 142.24L54.6207 140.835L54.5256 140.797C54.1824 141.186 53.7605 141.436 53.2598 141.547C52.7556 141.657 52.2006 141.592 51.5949 141.352C51.0349 141.13 50.5884 140.815 50.2553 140.406C49.9187 139.996 49.7142 139.514 49.6418 138.961C49.5658 138.406 49.6412 137.799 49.8679 137.14L51.6474 131.876L53.5597 132.633L51.8821 137.596C51.6953 138.149 51.69 138.637 51.8662 139.061C52.0389 139.483 52.3718 139.792 52.8648 139.987C53.1994 140.12 53.5224 140.162 53.834 140.115C54.1408 140.069 54.4155 139.936 54.658 139.715C54.897 139.492 55.0838 139.182 55.2185 138.783Z" fill="#353535"/>
<path d="M119.565 24.9811L118.805 26.379L114.444 23.6224L115.204 22.2245L119.565 24.9811ZM112.128 30.5825L116.687 22.1897C116.968 21.6738 117.303 21.3092 117.694 21.0959C118.089 20.8846 118.507 20.8044 118.948 20.8552C119.389 20.9061 119.823 21.0661 120.248 21.3353C120.549 21.5255 120.803 21.7195 121.01 21.9172C121.216 22.1148 121.365 22.2691 121.455 22.3798L120.35 23.5592C120.289 23.4894 120.209 23.4074 120.109 23.3132C120.012 23.2158 119.894 23.1235 119.757 23.0365C119.433 22.8321 119.16 22.7689 118.937 22.847C118.719 22.9238 118.528 23.112 118.366 23.4115L113.872 31.6845L112.128 30.5825Z" fill="#353535"/>
<path d="M38.4293 133.97L39.1867 132.571L43.5433 135.334L42.786 136.733L38.4293 133.97ZM45.8516 128.367L41.3046 136.767C41.0251 137.283 40.6901 137.648 40.2996 137.861C39.906 138.072 39.4888 138.152 39.0482 138.101C38.6076 138.05 38.1745 137.889 37.7491 137.619C37.4484 137.429 37.1949 137.234 36.9884 137.036C36.782 136.838 36.6336 136.683 36.5433 136.572L37.6461 135.393C37.7071 135.462 37.7872 135.545 37.8865 135.639C37.9841 135.737 38.1016 135.829 38.2391 135.916C38.5622 136.121 38.8351 136.185 39.0578 136.107C39.2755 136.03 39.4655 135.842 39.6278 135.542L44.1099 127.263L45.8516 128.367Z" fill="#353535"/>
<path d="M118.536 35.5438C118.115 35.186 117.793 34.7841 117.571 34.3382C117.354 33.8917 117.263 33.4275 117.296 32.9456C117.333 32.4661 117.519 31.9954 117.856 31.5332C118.147 31.1354 118.456 30.8652 118.784 30.7227C119.112 30.5802 119.453 30.5327 119.807 30.58C120.16 30.6274 120.516 30.7387 120.875 30.914C121.238 31.0888 121.595 31.295 121.945 31.5328C122.367 31.8208 122.711 32.051 122.978 32.2232C123.247 32.3923 123.464 32.4868 123.627 32.5065C123.795 32.5255 123.938 32.4555 124.054 32.2964L124.074 32.2688C124.326 31.923 124.425 31.5731 124.369 31.2191C124.314 30.8652 124.105 30.5338 123.741 30.225C123.357 29.899 122.987 29.7292 122.633 29.7155C122.281 29.7043 121.978 29.7864 121.723 29.962L120.42 28.499C120.848 28.1686 121.3 27.9723 121.775 27.9101C122.253 27.8449 122.736 27.9033 123.225 28.0855C123.717 28.2646 124.195 28.5514 124.66 28.946C124.98 29.2181 125.27 29.5287 125.53 29.8779C125.79 30.227 125.984 30.605 126.113 31.0116C126.244 31.4152 126.275 31.8405 126.206 32.2875C126.14 32.7369 125.937 33.1957 125.595 33.664L122.153 38.3831L120.646 37.1037L121.352 36.1351L121.3 36.091C121.062 36.206 120.794 36.2756 120.496 36.2999C120.202 36.3236 119.888 36.2772 119.552 36.1607C119.221 36.0436 118.883 35.8379 118.536 35.5438ZM119.834 34.6683C120.149 34.9355 120.47 35.1013 120.797 35.1658C121.126 35.2272 121.433 35.2004 121.718 35.0854C122.006 34.9729 122.244 34.7866 122.434 34.5265L123.04 33.6956C122.96 33.6968 122.847 33.6655 122.702 33.6017C122.56 33.5404 122.406 33.4622 122.242 33.3672C122.077 33.2722 121.916 33.1754 121.759 33.0767C121.602 32.978 121.466 32.8922 121.351 32.8193C121.092 32.6544 120.843 32.5318 120.602 32.4515C120.362 32.3711 120.138 32.3545 119.93 32.4015C119.725 32.4455 119.545 32.5746 119.388 32.7888C119.165 33.0948 119.102 33.4153 119.199 33.7503C119.296 34.0854 119.508 34.3913 119.834 34.6683Z" fill="#353535"/>
<path d="M39.4426 123.381C39.8637 123.74 40.185 124.142 40.4066 124.589C40.6231 125.036 40.7147 125.501 40.6814 125.984C40.6452 126.464 40.459 126.935 40.1227 127.398C39.8332 127.796 39.5246 128.067 39.1969 128.209C38.8692 128.352 38.5288 128.399 38.1759 128.352C37.823 128.304 37.4676 128.193 37.1098 128.017C36.7468 127.842 36.3905 127.635 36.0408 127.397C35.6203 127.108 35.2767 126.878 35.0099 126.705C34.7409 126.535 34.5249 126.441 34.3619 126.421C34.1938 126.402 34.0518 126.472 33.936 126.631L33.9159 126.659C33.6643 127.005 33.566 127.355 33.6212 127.71C33.6763 128.064 33.8856 128.396 34.2489 128.706C34.6325 129.032 35.0013 129.203 35.3554 129.217C35.7067 129.228 36.0092 129.146 36.263 128.97L37.5647 130.436C37.1376 130.766 36.6867 130.963 36.2121 131.025C35.7352 131.09 35.2526 131.031 34.7644 130.849C34.2739 130.669 33.7966 130.382 33.3323 129.986C33.0122 129.714 32.7224 129.403 32.4631 129.053C32.2038 128.703 32.0097 128.324 31.8809 127.917C31.7499 127.513 31.7186 127.087 31.7872 126.639C31.8528 126.189 32.056 125.73 32.3968 125.261L35.8308 120.536L37.3362 121.818L36.6313 122.788L36.6833 122.832C36.921 122.717 37.1887 122.647 37.4864 122.623C37.7791 122.599 38.093 122.646 38.4283 122.763C38.7584 122.88 39.0965 123.087 39.4426 123.381ZM38.1474 124.257C37.8331 123.99 37.5127 123.824 37.1862 123.759C36.8575 123.697 36.551 123.724 36.2666 123.839C35.9794 123.951 35.7411 124.138 35.5518 124.398L34.9472 125.23C35.0274 125.229 35.14 125.261 35.2849 125.324C35.427 125.386 35.5802 125.464 35.7444 125.559C35.9086 125.655 36.0692 125.752 36.2261 125.851C36.383 125.95 36.5189 126.036 36.6339 126.109C36.892 126.274 37.1411 126.397 37.3814 126.477C37.6216 126.558 37.8452 126.575 38.0521 126.528C38.2568 126.484 38.4371 126.354 38.593 126.14C38.8157 125.834 38.8786 125.513 38.7816 125.177C38.6847 124.842 38.4733 124.535 38.1474 124.257Z" fill="#353535"/>
<path d="M123.296 39.4938L129.186 33.0533L130.551 34.5066L129.57 35.58L129.632 35.6462C130.081 35.3904 130.53 35.3026 130.978 35.3829C131.432 35.4631 131.83 35.6854 132.173 36.0498C132.25 36.1326 132.334 36.2292 132.422 36.3398C132.515 36.4502 132.588 36.547 132.64 36.63L131.363 38.0262C131.324 37.9404 131.247 37.8201 131.133 37.6653C131.024 37.5105 130.909 37.3696 130.79 37.2426C130.533 36.9693 130.248 36.7838 129.933 36.6859C129.623 36.588 129.314 36.5818 129.005 36.6672C128.697 36.7527 128.418 36.9324 128.167 37.2063L124.705 40.9926L123.296 39.4938Z" fill="#353535"/>
<path d="M34.6823 119.409L28.8039 125.86L27.4406 124.404L28.4203 123.329L28.3582 123.262C27.9101 123.519 27.4622 123.607 27.0144 123.526C26.5614 123.446 26.164 123.223 25.8223 122.858C25.7446 122.775 25.6617 122.678 25.5735 122.568C25.4802 122.457 25.4076 122.36 25.3556 122.277L26.63 120.879C26.6692 120.965 26.7458 121.085 26.86 121.24C26.969 121.395 27.0831 121.536 27.2022 121.664C27.4585 121.937 27.7438 122.123 28.0581 122.221C28.3672 122.319 28.6757 122.325 28.9836 122.24C29.2914 122.154 29.5704 121.974 29.8204 121.7L33.2763 117.908L34.6823 119.409Z" fill="#353535"/>
<path d="M127.568 44.2153L134.422 38.8119L135.525 40.4395L134.36 41.3576L134.417 41.4423C134.912 41.2832 135.387 41.291 135.843 41.4655C136.302 41.6377 136.695 41.9653 137.022 42.4482C137.354 42.9374 137.52 43.4389 137.522 43.9526C137.528 44.4672 137.384 44.9459 137.091 45.3888L137.142 45.464C137.631 45.3238 138.118 45.3542 138.601 45.5555C139.089 45.7574 139.51 46.1203 139.865 46.644C140.316 47.3088 140.484 48.0084 140.37 48.7429C140.256 49.4773 139.817 50.1459 139.053 50.7487L134.452 54.3755L133.296 52.668L137.646 49.2382C138.071 48.9028 138.301 48.5386 138.336 48.1455C138.374 47.75 138.276 47.3798 138.042 47.0349C137.764 46.6241 137.424 46.3988 137.023 46.359C136.627 46.3201 136.236 46.453 135.849 46.7579L131.575 50.128L130.443 48.4581L134.86 44.9755C135.214 44.6964 135.42 44.3607 135.479 43.9684C135.539 43.5793 135.447 43.2044 135.203 42.8438C135.037 42.5992 134.827 42.4234 134.572 42.3165C134.32 42.2073 134.046 42.1775 133.751 42.2272C133.459 42.2746 133.172 42.4097 132.889 42.6324L128.722 45.9181L127.568 44.2153Z" fill="#353535"/>
<path d="M30.408 114.654L23.5636 120.068L22.4635 118.439L23.6265 117.519L23.5693 117.434C23.0754 117.594 22.6009 117.586 22.1458 117.412C21.6877 117.24 21.2954 116.912 20.969 116.428C20.6383 115.939 20.4725 115.436 20.4714 114.922C20.4653 114.407 20.6087 113.927 20.9016 113.483L20.8508 113.408C20.3624 113.549 19.8771 113.519 19.3949 113.317C18.9075 113.115 18.4868 112.752 18.1329 112.228C17.6835 111.562 17.5158 110.862 17.6298 110.126C17.7439 109.391 18.1826 108.721 18.9461 108.117L23.5401 104.482L24.6943 106.192L20.3498 109.629C19.925 109.965 19.6951 110.33 19.6601 110.723C19.6222 111.12 19.7198 111.49 19.953 111.836C20.2306 112.247 20.5697 112.472 20.9702 112.512C21.3655 112.551 21.7563 112.417 22.1425 112.112L26.4113 108.735L27.54 110.406L23.1286 113.896C22.7751 114.176 22.5692 114.512 22.5109 114.905C22.4505 115.295 22.5422 115.67 22.7859 116.031C22.9513 116.276 23.1612 116.452 23.4157 116.559C23.6672 116.668 23.9402 116.698 24.2346 116.648C24.5261 116.6 24.8129 116.465 25.0951 116.242L29.257 112.949L30.408 114.654Z" fill="#353535"/>
<circle cx="15" cy="79" r="2" fill="#353535"/>
<circle cx="143" cy="79" r="2" fill="#353535"/>
</svg>
