<svg width="48" height="48" viewBox="0 0 48 48" fill="none" xmlns="http://www.w3.org/2000/svg">
<path d="M22.2211 1.46229C22.965 0.0143044 25.035 0.0143046 25.7789 1.46229L32.5311 14.604C32.722 14.9755 33.0245 15.278 33.396 15.4689L46.5377 22.2211C47.9857 22.965 47.9857 25.035 46.5377 25.7789L33.396 32.5311C33.0245 32.722 32.722 33.0245 32.5311 33.396L25.7789 46.5377C25.035 47.9857 22.965 47.9857 22.2211 46.5377L15.4689 33.396C15.278 33.0245 14.9755 32.722 14.604 32.5311L1.46229 25.7789C0.0143044 25.035 0.0143046 22.965 1.46229 22.2211L14.604 15.4689C14.9755 15.278 15.278 14.9755 15.4689 14.604L22.2211 1.46229Z" fill="#FFC631"/>
</svg>
